:SAMPLES-PER-SECOND 30
:FULLY-SPECIFIED
:DEGREES
118
root  -0.6649444422 39.43288908 -0.2686577754 -8.260009766 -60.3030014 2.119995117
lowerback  11.43200016 2.330060005 -4.929639816
upperback  6.167270184 2.411079884 -0.9284719825
thorax  -0.1175369993 1.031769991 1.528839946
lowerneck  2.319279909 4.06084013 -8.164970398
upperneck  20.58300018 4.531020164 5.088870049
head  5.505119801 1.761019945 3.13041997
lclavicle  0 -9.442270133e-015 7.951389973e-016
lhumerus  8.310660362 -12.50809956 82.51339722
lradius  1.924274025e-031 -2.960745432e-031 123.0210037
lwrist  -7.062250077e-031 -0 15.39649963
lhand  -1.496451383e-031 -27.76390076 20.11240005
lfingers  90 7.125020027 -90
lthumb  89.89689403 5.08795885 91.16245106
rclavicle  0 -9.442270133e-015 7.951389973e-016
rhumerus  20.96689987 25.20879936 -77.06710052
rradius  -2.083263782e-031 2.851114878e-031 126.1549988
rwrist  0 -3.531125038e-031 -1.635910034
rhand  -7.920061211e-032 -33.2840004 9.303460121
rfingers  -90 -7.125020027 -90
rthumb  -92.93752616 -24.25625642 -97.11982154
rfemur  -31.36569977 15.06130028 0.8859859705
rtibia  -0 0 38.23830032
rfoot  -4.966593266e-032 -1.119889975 0.7236419916
rtoes  5.373923086 19.29304026 -105.8922705
lfemur  -9.367440224 2.430140018 -8.477769852
ltibia  -0 0 65.09410095
lfoot  -0 6.856569767 -13.25020027
ltoes  -4.250644065 -19.5611806 -102.515957
119
root  -0.482986668 39.55355667 -0.2259066724 -8.419006348 -62.39299774 2.117980957
lowerback  11.65139961 2.415940046 -4.444499969
upperback  6.199269772 2.552489996 -0.8735229969
thorax  -0.1967220008 1.110100031 1.290940046
lowerneck  1.49090004 4.286459923 -7.495999813
upperneck  20.62210083 4.985610008 4.516129971
head  5.662640095 2.000930071 2.872980118
lclavicle  0 -9.442270133e-015 7.951389973e-016
lhumerus  7.438029766 -11.77470016 81.89649963
lradius  1.977440336e-031 -2.925504017e-031 124.0559998
lwrist  0 -1.765562519e-031 15.70009995
lhand  -1.496451383e-031 -27.76390076 20.11240005
lfingers  90 7.125020027 -90
lthumb  89.89689403 5.08795885 91.16245106
rclavicle  0 -9.442270133e-015 7.951389973e-016
rhumerus  21.42959976 26.44779968 -76.72109985
rradius  -2.051588444e-031 2.873991804e-031 125.5210037
rwrist  0 -0 -1.909980059
rhand  -7.920061211e-032 -33.2840004 9.303460121
rfingers  -90 -7.125020027 -90
rthumb  -92.93752616 -24.25625642 -97.11982154
rfemur  -31.3166008 14.87040043 1.572239995
rtibia  -0 0 38.73789978
rfoot  -8.850378669e-032 -4.09239006 -3.301249981
rtoes  5.373923086 19.29304026 -105.8922705
lfemur  -9.53798008 2.495199919 -8.201800346
ltibia  -0 0 65.17559814
lfoot  -0 6.614369869 -13.47789955
ltoes  -4.250644065 -19.5611806 -102.515957
120
root  -0.3067866554 39.61355555 -0.1860397773 -7.968017578 -64.29000092 1.453979492
lowerback  11.74009991 2.379369974 -3.678829908
upperback  6.27049017 2.572829962 -0.7570180297
thorax  -0.1481180042 1.13124001 0.9797899723
lowerneck  0.7214509845 4.55809021 -6.915520191
upperneck  20.58729935 5.458670139 4.159180164
head  5.781300068 2.257149935 2.699589968
lclavicle  0 -9.442270133e-015 7.951389973e-016
lhumerus  6.72991991 -10.86610031 81.29679871
lradius  2.02405727e-031 -2.893447114e-031 124.973999
lwrist  -7.062250077e-031 -0 16.35890007
lhand  -1.496451383e-031 -27.76390076 20.11240005
lfingers  90 7.125020027 -90
lthumb  89.89689403 5.08795885 91.16245106
rclavicle  0 -9.442270133e-015 7.951389973e-016
rhumerus  22.04199982 27.5923996 -76.32949829
rradius  -2.025925484e-031 2.892139341e-031 125.0110016
rwrist  3.531125038e-031 -0 -2.306710005
rhand  -7.920061211e-032 -33.2840004 9.303460121
rfingers  -90 -7.125020027 -90
rthumb  -92.93752616 -24.25625642 -97.11982154
rfemur  -31.35810089 14.65190029 2.529959917
rtibia  -0 0 39.85739899
rfoot  -8.882930577e-032 -6.386030197 -7.170000076
rtoes  5.373923086 19.29304026 -105.8922705
lfemur  -9.754340172 2.530420065 -7.636400223
ltibia  -0 0 65.33630371
lfoot  -0 4.797659874 -12.44069958
ltoes  -4.250644065 -19.5611806 -102.515957
121
root  -0.1313837729 39.65266671 -0.1492866616 -7.500976563 -65.81500244 0.8850097656
lowerback  11.80970001 2.304620028 -2.941459894
upperback  6.189080238 2.542459965 -0.7730500102
thorax  -0.2406080067 1.134549975 0.5506079793
lowerneck  0.3510760069 4.745090008 -6.009260178
upperneck  20.51479912 5.746469975 3.852590084
head  5.841800213 2.445879936 2.472850084
lclavicle  0 -9.442270133e-015 7.951389973e-016
lhumerus  6.094759941 -10.07339954 80.61199951
lradius  2.062158326e-031 -2.866417115e-031 125.7320023
lwrist  0 -0 17.42480087
lhand  -1.496451383e-031 -27.76390076 20.11240005
lfingers  90 7.125020027 -90
lthumb  89.89689403 5.08795885 91.16245106
rclavicle  0 -9.442270133e-015 7.951389973e-016
rhumerus  22.31669998 28.44079971 -76.19190216
rradius  -2.005482474e-031 2.906352368e-031 124.6070023
rwrist  1.059337512e-030 -3.531125038e-031 -2.856349945
rhand  -7.920061211e-032 -33.2840004 9.303460121
rfingers  -90 -7.125020027 -90
rthumb  -92.93752616 -24.25625642 -97.11982154
rfemur  -31.50589943 14.30490017 3.267640114
rtibia  -0 0 41.55830002
rfoot  -0 -8.137379646 -10.50819969
rtoes  5.373923086 19.29304026 -105.8922705
lfemur  -10.2869997 2.192990065 -7.20927
ltibia  -0 0 65.53050232
lfoot  -0 3.051759958 -10.19579983
ltoes  -4.250644065 -19.5611806 -102.515957
